<?xml version="1.0" encoding="UTF-8" standalone="no"?>
<svg
   xmlns:dc="http://purl.org/dc/elements/1.1/"
   xmlns:cc="http://creativecommons.org/ns#"
   xmlns:rdf="http://www.w3.org/1999/02/22-rdf-syntax-ns#"
   xmlns:svg="http://www.w3.org/2000/svg"
   xmlns="http://www.w3.org/2000/svg"
   xmlns:sodipodi="http://sodipodi.sourceforge.net/DTD/sodipodi-0.dtd"
   xmlns:inkscape="http://www.inkscape.org/namespaces/inkscape"
   version="1.1"
   viewBox="0 0 2208 2208"
   id="svg2"
   inkscape:version="0.48.4 r9939"
   width="100%"
   height="100%"
   sodipodi:docname="splash.svg"
   inkscape:export-filename="/home/nader/Workspace/TunJS/apps/tunjs-mobile-cordova-ionic/resources/splash.png"
   inkscape:export-xdpi="90"
   inkscape:export-ydpi="90">
  <metadata
     id="metadata24">
    <rdf:RDF>
      <cc:Work
         rdf:about="">
        <dc:format>image/svg+xml</dc:format>
        <dc:type
           rdf:resource="http://purl.org/dc/dcmitype/StillImage" />
        <dc:title></dc:title>
      </cc:Work>
    </rdf:RDF>
  </metadata>
  <defs
     id="defs22" />
  <sodipodi:namedview
     pagecolor="#ffffff"
     bordercolor="#666666"
     borderopacity="1"
     objecttolerance="10"
     gridtolerance="10"
     guidetolerance="10"
     inkscape:pageopacity="0"
     inkscape:pageshadow="2"
     inkscape:window-width="1082"
     inkscape:window-height="716"
     id="namedview20"
     showgrid="false"
     inkscape:zoom="0.23046875"
     inkscape:cx="813.55932"
     inkscape:cy="1102.1017"
     inkscape:window-x="49"
     inkscape:window-y="24"
     inkscape:window-maximized="0"
     inkscape:current-layer="logo"
     fit-margin-top="0"
     fit-margin-left="0"
     fit-margin-right="0"
     fit-margin-bottom="0" />
  <g
     id="logo"
     transform="translate(0,1578)">
    <rect
       id="background"
       x="0"
       y="-1578"
       width="2208"
       height="2208"
       style="fill:#ffffff" />
    <g
       transform="matrix(0.48158393,0,0,0.48158393,924.22562,-663.16707)"
       id="g6"
       inkscape:export-filename="/home/nader/Workspace/TunJS/apps/tunjs-mobile-cordova-ionic/resources/splash.png"
       inkscape:export-xdpi="90"
       inkscape:export-ydpi="90">
      <g
         id="js"
         style="fill:#e70013">
        <path
           id="j"
           d="m 165.65,526.47375 48.2125,-29.1775 C 223.16375,513.7875 231.625,527.74 251.92,527.74 c 19.45375,0 31.71875,-7.60975 31.71875,-37.21 l 0,-201.3 59.20375,0 0,202.1375 c 0,61.32 -35.94375,89.23125 -88.385,89.23125 -47.36125,0 -74.8525,-24.52875 -88.8075,-54.13"
           inkscape:connector-curvature="0" />
        <path
           id="s"
           d="m 375,520.13 48.20625,-27.91125 c 12.69,20.72375 29.1825,35.9475 58.36125,35.9475 24.53125,0 40.17375,-12.26475 40.17375,-29.18125 0,-20.29875 -16.06875,-27.48875 -43.135,-39.32625 l -14.7975,-6.3475 c -42.715,-18.18125 -71.05,-41.0175 -71.05,-89.2275 0,-44.40375 33.83125,-78.2375 86.695,-78.2375 37.6375,0 64.7025,13.11125 84.15375,47.36625 l -46.09625,29.60125 c -10.15,-18.1825 -21.1425,-25.37125 -38.0575,-25.37125 -17.33875,0 -28.335,10.995 -28.335,25.37125 0,17.7625 10.99625,24.9525 36.3675,35.94875 l 14.8,6.3425 c 50.325,21.56875 78.66,43.5575 78.66,93.03375 0,53.2875 -41.86625,82.465 -98.11,82.465 -54.97625,0 -90.5,-26.2175 -107.83625,-60.47375"
           inkscape:connector-curvature="0" />
      </g>
      <g
         id="cokcade"
         transform="translate(313,240)"
         style="fill:#e70013">
        <circle
           r="35"
           id="circle12"
           d="M 35,0 C 35,19.329966 19.329966,35 0,35 -19.329966,35 -35,19.329966 -35,0 c 0,-19.329966 15.670034,-35 35,-35 19.329966,0 35,15.670034 35,35 z"
           cx="0"
           cy="0"
           sodipodi:cx="0"
           sodipodi:cy="0"
           sodipodi:rx="35"
           sodipodi:ry="35" />
        <circle
           r="33"
           id="circle14"
           d="M 33,0 C 33,18.225397 18.225397,33 0,33 -18.225397,33 -33,18.225397 -33,0 c 0,-18.225397 14.774603,-33 33,-33 18.225397,0 33,14.774603 33,33 z"
           cx="0"
           cy="0"
           sodipodi:cx="0"
           sodipodi:cy="0"
           sodipodi:rx="33"
           sodipodi:ry="33"
           style="fill:#ffffff" />
        <path
           d="m 24,-18 a 30,30 0 1 0 0,36 26,26 0 1 1 0,-36"
           id="path16"
           inkscape:connector-curvature="0" />
        <path
           d="m 32,0 -8.2918,2.6942 0,8.7185 L 18.5836,4.3593 10.2918,7.0534 15.4164,0 l -5.1246,-7.0534 8.2918,2.6941 5.1246,-7.0534 0,8.7185 z"
           id="path18"
           inkscape:connector-curvature="0" />
      </g>
    </g>
  </g>
</svg>
